<svg width="64" height="64" viewBox="0 0 64 64" fill="none" xmlns="http://www.w3.org/2000/svg">
<rect width="64" height="64" rx="8" fill="white"/>
<path d="M48.1109 28.9438L46.5566 25.3897C46.2804 24.7566 45.821 24.2176 45.2357 23.8397C44.6504 23.4618 43.9651 23.2619 43.2652 23.2648H40.7491V22.3585C40.7486 21.9982 40.603 21.6529 40.3442 21.3981C40.0854 21.1433 39.7345 21 39.3685 20.9995H21.8142C21.6931 20.9987 21.573 21.0216 21.4609 21.0668C21.3488 21.1121 21.247 21.1788 21.1613 21.2631C21.0756 21.3474 21.0079 21.4477 20.9619 21.558C20.9159 21.6684 20.8927 21.7866 20.8935 21.9058C20.8978 22.1449 20.9961 22.373 21.1679 22.5421C21.3396 22.7111 21.5714 22.808 21.8142 22.8121H38.8373V29.5018C38.8357 29.699 38.874 29.8946 38.95 30.0771C39.0259 30.2596 39.138 30.4254 39.2796 30.5649C39.4213 30.7043 39.5898 30.8146 39.7752 30.8894C39.9606 30.9641 40.1592 31.0018 40.3596 31.0003H46.4853V35.2159C46.4854 35.257 46.4773 35.2978 46.4613 35.3359C46.4454 35.3739 46.4219 35.4085 46.3924 35.4376C46.3628 35.4667 46.3277 35.4898 46.289 35.5055C46.2504 35.5212 46.2089 35.5292 46.1671 35.5291H45.0316C44.7332 35.0219 44.3049 34.6006 43.7894 34.3072C43.274 34.0138 42.6894 33.8585 42.094 33.8569C41.5001 33.8659 40.9184 34.0242 40.4043 34.3169C39.8901 34.6096 39.4605 35.0269 39.1564 35.5291H29.7054C29.407 35.0219 28.9787 34.6006 28.4633 34.3072C27.9478 34.0138 27.3632 33.8585 26.7678 33.8569C26.1739 33.8659 25.5923 34.0242 25.0781 34.3169C24.564 34.6096 24.1344 35.0269 23.8302 35.5291H20.5745C20.4512 35.5252 20.3284 35.5458 20.2133 35.5896C20.0983 35.6334 19.9933 35.6995 19.9048 35.784C19.8162 35.8685 19.7457 35.9697 19.6976 36.0815C19.6495 36.1933 19.6248 36.3135 19.6248 36.4349C19.6248 36.5563 19.6495 36.6765 19.6976 36.7883C19.7457 36.9001 19.8162 37.0013 19.9048 37.0858C19.9933 37.1703 20.0983 37.2364 20.2133 37.2802C20.3284 37.324 20.4512 37.3446 20.5745 37.3407H23.3703C23.4083 38.2027 23.783 39.017 24.416 39.6137C25.0491 40.2104 25.8918 40.5435 26.7683 40.5435C27.6448 40.5435 28.4874 40.2104 29.1205 39.6137C29.7536 39.017 30.1282 38.2027 30.1662 37.3407H38.6965C38.7345 38.2027 39.1091 39.017 39.7422 39.6137C40.3753 40.2104 41.2179 40.5435 42.0944 40.5435C42.9709 40.5435 43.8136 40.2104 44.4467 39.6137C45.0798 39.017 45.4544 38.2027 45.4924 37.3407H46.2357C46.8075 37.3384 47.3551 37.1137 47.7594 36.7158C48.1637 36.3178 48.3919 35.7787 48.3943 35.2159V30.3379C48.3858 29.8602 48.2898 29.3879 48.1109 28.9438ZM26.7678 38.7294C26.4604 38.7294 26.1599 38.6397 25.9043 38.4716C25.6487 38.3035 25.4495 38.0645 25.3318 37.7849C25.2142 37.5054 25.1834 37.1978 25.2434 36.901C25.3034 36.6042 25.4514 36.3316 25.6688 36.1176C25.8861 35.9036 26.1631 35.7579 26.4646 35.6989C26.7661 35.6398 27.0786 35.6701 27.3626 35.7859C27.6466 35.9017 27.8894 36.0978 28.0602 36.3494C28.2309 36.601 28.3221 36.8968 28.3221 37.1994C28.3178 37.6039 28.1527 37.9906 27.8621 38.2767C27.5716 38.5627 27.1787 38.7252 26.7678 38.7294ZM42.094 38.7294C41.7866 38.7294 41.4861 38.6397 41.2305 38.4716C40.9749 38.3035 40.7757 38.0645 40.658 37.7849C40.5404 37.5054 40.5096 37.1978 40.5696 36.901C40.6295 36.6042 40.7776 36.3316 40.9949 36.1176C41.2123 35.9036 41.4893 35.7579 41.7908 35.6989C42.0923 35.6398 42.4048 35.6701 42.6888 35.7859C42.9728 35.9017 43.2155 36.0978 43.3863 36.3494C43.5571 36.601 43.6483 36.8968 43.6483 37.1994C43.644 37.6039 43.4789 37.9906 43.1883 38.2767C42.8977 38.5627 42.5049 38.7252 42.094 38.7294ZM40.7134 25.1062H43.2268C43.5589 25.1021 43.8846 25.1963 44.1617 25.3765C44.4388 25.5567 44.6546 25.8146 44.7811 26.1169L46.1287 29.1895H40.7134V25.1062Z" fill="#333333"/>
<path d="M19.1587 26.6094H25.6712C25.7945 26.6132 25.9173 26.5926 26.0323 26.5488C26.1474 26.505 26.2523 26.4389 26.3409 26.3544C26.4295 26.2699 26.4999 26.1688 26.548 26.0569C26.5961 25.9451 26.6209 25.8249 26.6209 25.7035C26.6209 25.5821 26.5961 25.4619 26.548 25.3501C26.4999 25.2382 26.4295 25.1371 26.3409 25.0526C26.2523 24.9681 26.1474 24.902 26.0323 24.8581C25.9173 24.8143 25.7945 24.7937 25.6712 24.7976H19.1587C19.0376 24.7967 18.9175 24.8196 18.8054 24.8649C18.6933 24.9101 18.5915 24.9768 18.5058 25.0612C18.4202 25.1455 18.3524 25.2458 18.3064 25.3561C18.2604 25.4664 18.2372 25.5847 18.2381 25.7039C18.2425 25.9429 18.341 26.1708 18.5127 26.3397C18.6844 26.5086 18.916 26.6053 19.1587 26.6094Z" fill="#333333"/>
<path d="M17.4244 30.0931H23.9368C24.0601 30.0969 24.1829 30.0763 24.298 30.0325C24.413 29.9887 24.5179 29.9226 24.6065 29.8381C24.6951 29.7536 24.7655 29.6525 24.8136 29.5407C24.8617 29.4289 24.8865 29.3087 24.8865 29.1873C24.8865 29.0659 24.8617 28.9457 24.8136 28.8339C24.7655 28.7221 24.6951 28.6209 24.6065 28.5364C24.5179 28.4519 24.413 28.3858 24.298 28.342C24.1829 28.2982 24.0601 28.2776 23.9368 28.2815H17.4244C17.3032 28.2806 17.1831 28.3035 17.071 28.3487C16.9589 28.394 16.8571 28.4607 16.7715 28.545C16.6858 28.6293 16.618 28.7296 16.572 28.8399C16.5261 28.9502 16.5028 29.0685 16.5037 29.1877C16.5081 29.4266 16.6066 29.6545 16.7783 29.8234C16.9501 29.9922 17.1817 30.0889 17.4244 30.0931Z" fill="#333333"/>
<path d="M23.1578 32.6717C23.1587 32.5524 23.1354 32.4342 23.0895 32.3239C23.0435 32.2135 22.9757 32.1133 22.8901 32.0289C22.8044 31.9446 22.7026 31.8779 22.5905 31.8326C22.4784 31.7874 22.3583 31.7645 22.2371 31.7653H15.6899C15.5666 31.7615 15.4438 31.7821 15.3288 31.8259C15.2137 31.8697 15.1088 31.9358 15.0202 32.0203C14.9317 32.1048 14.8612 32.206 14.8131 32.3178C14.765 32.4296 14.7402 32.5498 14.7402 32.6712C14.7402 32.7927 14.765 32.9129 14.8131 33.0247C14.8612 33.1365 14.9317 33.2376 15.0202 33.3221C15.1088 33.4066 15.2137 33.4727 15.3288 33.5166C15.4438 33.5604 15.5666 33.581 15.6899 33.5771H22.2024C22.3268 33.5845 22.4514 33.5664 22.5683 33.524C22.6853 33.4815 22.792 33.4157 22.8818 33.3306C22.9716 33.2455 23.0424 33.1431 23.09 33.0296C23.1375 32.9162 23.1606 32.7943 23.1578 32.6717Z" fill="#333333"/>
</svg>
