<svg width="64" height="64" viewBox="0 0 64 64" fill="none" xmlns="http://www.w3.org/2000/svg">
<rect width="64" height="64" rx="8" fill="white"/>
<path d="M17.7934 45.9019C17.6342 45.9009 17.4803 45.8417 17.3579 45.7342C17.2354 45.6267 17.1519 45.4778 17.1217 45.3126C17.0914 45.1474 17.1163 44.9763 17.1919 44.8282C17.2676 44.6802 17.3895 44.5645 17.5367 44.5008C17.684 44.437 17.8477 44.4292 17.9998 44.4787C18.1519 44.5281 18.2832 44.6317 18.3712 44.7719C18.4592 44.9121 18.4985 45.0802 18.4825 45.2476C18.4664 45.415 18.396 45.5713 18.2832 45.69C18.2188 45.7577 18.1424 45.8113 18.0584 45.8477C17.9743 45.8841 17.8842 45.9025 17.7934 45.9019Z" fill="#FBB03B"/>
<path d="M21.4275 48.9413H15.0588V47.1981H19.7794V38.2651H15.0588V36.5229H21.4275V48.9413Z" fill="#FBB03B"/>
<path d="M31.2067 47.1628H22.5178V38.3206L22.6133 38.1278C23.1487 37.135 23.9528 36.3343 24.9221 35.8284C25.8316 35.3663 26.8233 35.1129 27.8321 35.0849C28.8409 35.0569 29.8439 35.2549 30.7751 35.6659C31.3747 35.925 31.96 36.2199 32.5281 36.5491C32.995 36.8075 33.4362 37.0538 33.8926 37.2557C34.0848 37.3301 34.2816 37.3905 34.4817 37.4363C34.8967 37.4789 35.2963 37.6248 35.6478 37.862C35.9993 38.0992 36.2927 38.421 36.504 38.801C36.7265 39.4024 36.8116 40.0509 36.7522 40.6936L40.9038 40.631L43.0569 38.1076C43.4564 37.638 44.0159 37.3555 44.6125 37.322C45.209 37.2886 45.7937 37.5071 46.2379 37.9294C46.682 38.3517 46.9493 38.9433 46.9809 39.5739C47.0125 40.2046 46.8059 40.8226 46.4064 41.2922L43.16 45.1188L31.2067 47.1628ZM24.1716 45.4196H31.0749L42.3226 43.5017L45.1785 40.1263C45.2842 40.0003 45.3385 39.8352 45.3295 39.667C45.3205 39.4988 45.249 39.3412 45.1305 39.2286C45.012 39.116 44.8561 39.0575 44.697 39.0659C44.5378 39.0743 44.3883 39.1489 44.281 39.2734L41.6466 42.3571L31.4415 42.5206L31.4177 40.7784L35.1099 40.7209C35.1603 40.3115 35.1241 39.8954 35.004 39.5026C34.9409 39.3511 34.3919 39.2078 34.0969 39.1311C33.8122 39.0651 33.5329 38.9757 33.2614 38.8636C32.742 38.6314 32.2493 38.3589 31.7729 38.0945C31.2594 37.7962 30.7306 37.5286 30.1888 37.293C29.4753 36.9714 28.7056 36.8129 27.9301 36.8277C27.1546 36.8424 26.3908 37.0303 25.6888 37.3788C25.0786 37.6988 24.557 38.18 24.1744 38.7758L24.1716 45.4196Z" fill="#FBB03B"/>
<path d="M48.0002 18.0078V16.1546L42.7487 14.1177L32.6066 19.6299H23.8538V32.6024H43.9479V28.9283C44.221 28.9384 44.4912 28.9495 44.7547 28.9697C44.9199 28.9798 45.0842 28.9868 45.2493 28.9868C46.1874 28.9793 47.1175 28.8039 48.0002 28.468V26.6057L47.9773 26.6158C47.0004 27.0785 45.9336 27.2899 44.8645 27.2325C44.5647 27.2113 44.2621 27.1982 43.9489 27.1871C43.4218 27.173 42.8785 27.177 42.3018 27.1972C41.5084 27.2255 40.6576 27.2911 39.7295 27.392L38.7146 27.5031C38.4613 27.54 38.2046 27.4691 38.0008 27.3059C37.797 27.1427 37.6629 26.9007 37.628 26.633C37.593 26.3653 37.6601 26.0939 37.8145 25.8784C37.9688 25.663 38.1978 25.5212 38.451 25.4843L42.2923 24.7777C42.2938 24.7784 42.2954 24.7787 42.297 24.7787C42.2987 24.7787 42.3003 24.7784 42.3018 24.7777C42.6389 24.7163 42.9599 24.5802 43.2436 24.3782C43.5273 24.1762 43.7674 23.913 43.9479 23.6058C44.1812 23.2131 44.3109 22.7615 44.3234 22.2979C44.3358 21.8343 44.2307 21.3757 44.0189 20.9695C43.8071 20.5634 43.4963 20.2246 43.1188 19.9883C42.7413 19.752 42.3108 19.6269 41.8721 19.6259H36.2063L42.8613 16.0153L48.0002 18.0078ZM41.8731 21.3711C42.0248 21.3694 42.1737 21.4143 42.3018 21.5003C42.418 21.5775 42.5138 21.6847 42.5801 21.8117C42.6465 21.9387 42.6813 22.0814 42.6813 22.2265C42.6813 22.3716 42.6465 22.5144 42.5801 22.6414C42.5138 22.7684 42.418 22.8755 42.3018 22.9528C42.2144 23.0105 42.117 23.0496 42.0154 23.0678L38.1741 23.7744C37.529 23.8909 36.9489 24.2593 36.5487 24.8067C36.1485 25.354 35.9574 26.0404 36.0134 26.7297C36.0694 27.419 36.3683 28.0609 36.851 28.5281C37.3336 28.9953 37.9647 29.2538 38.6191 29.2523C38.7071 29.2527 38.7951 29.248 38.8826 29.2382C38.8826 29.2382 41.5637 28.9737 42.3056 28.9455V30.8633H25.5008V21.3751L41.8731 21.3711Z" fill="#FBB03B"/>
<path d="M34.8323 25.2451H33.1853V26.9864H34.8323V25.2451Z" fill="#FBB03B"/>
</svg>
